<svg width="197" height="61" viewBox="0 0 197 61" fill="none" xmlns="http://www.w3.org/2000/svg">
<path d="M48.01 40.5L40.3 20.25L43.09 19.17L49.69 37.38L56.32 19.26L58.9 20.25L51.22 40.5H48.01ZM67.1118 40.86C65.8118 40.86 64.6318 40.53 63.5718 39.87C62.5118 39.21 61.6618 38.28 61.0218 37.08C60.4018 35.86 60.0918 34.43 60.0918 32.79C60.0918 31.23 60.4018 29.83 61.0218 28.59C61.6618 27.35 62.5318 26.37 63.6318 25.65C64.7518 24.91 66.0318 24.54 67.4718 24.54C68.3718 24.54 69.1818 24.7 69.9018 25.02C70.6418 25.32 71.2818 25.7 71.8218 26.16V24.9H74.2818V36.72C74.2818 37.48 74.4618 37.98 74.8218 38.22C75.2018 38.44 75.6118 38.55 76.0518 38.55L75.4818 40.65C73.5618 40.65 72.4018 39.87 72.0018 38.31C71.5418 38.95 70.9118 39.54 70.1118 40.08C69.3318 40.6 68.3318 40.86 67.1118 40.86ZM67.7118 38.46C68.4718 38.46 69.1918 38.28 69.8718 37.92C70.5518 37.54 71.1218 37.07 71.5818 36.51V28.14C71.0418 27.76 70.4418 27.46 69.7818 27.24C69.1418 27 68.4618 26.88 67.7418 26.88C66.7818 26.88 65.9318 27.13 65.1918 27.63C64.4718 28.11 63.9018 28.79 63.4818 29.67C63.0618 30.53 62.8518 31.54 62.8518 32.7C62.8518 33.82 63.0618 34.82 63.4818 35.7C63.9018 36.56 64.4818 37.24 65.2218 37.74C65.9618 38.22 66.7918 38.46 67.7118 38.46ZM85.2974 40.86C84.3774 40.86 83.5474 40.69 82.8074 40.35C82.0674 39.99 81.4774 39.42 81.0374 38.64C80.6174 37.86 80.4074 36.85 80.4074 35.61V18.3H83.1074V35.34C83.1074 36.42 83.3274 37.22 83.7674 37.74C84.2274 38.26 84.8574 38.52 85.6574 38.52C86.0374 38.52 86.4074 38.48 86.7674 38.4C87.1474 38.3 87.4674 38.19 87.7274 38.07L88.3874 40.26C88.0274 40.42 87.5774 40.56 87.0374 40.68C86.5174 40.8 85.9374 40.86 85.2974 40.86ZM91.8285 40.5V24.9H94.5285V40.5H91.8285ZM93.1785 22.23C92.6585 22.23 92.2085 22.04 91.8285 21.66C91.4685 21.28 91.2885 20.84 91.2885 20.34C91.2885 19.76 91.4585 19.3 91.7985 18.96C92.1385 18.62 92.5985 18.45 93.1785 18.45C93.6985 18.45 94.1385 18.64 94.4985 19.02C94.8785 19.38 95.0685 19.82 95.0685 20.34C95.0685 20.9 94.8985 21.36 94.5585 21.72C94.2185 22.06 93.7585 22.23 93.1785 22.23ZM106.139 40.86C104.859 40.86 103.689 40.53 102.629 39.87C101.569 39.21 100.729 38.28 100.109 37.08C99.4885 35.86 99.1785 34.43 99.1785 32.79C99.1785 31.21 99.4885 29.8 100.109 28.56C100.749 27.32 101.589 26.34 102.629 25.62C103.689 24.9 104.849 24.54 106.109 24.54C107.149 24.54 108.039 24.75 108.779 25.17C109.539 25.59 110.129 26.02 110.549 26.46V18.3H113.249V36.72C113.249 37.48 113.429 37.98 113.789 38.22C114.169 38.44 114.579 38.55 115.019 38.55L114.449 40.65C112.549 40.65 111.389 39.89 110.969 38.37C110.529 38.99 109.909 39.56 109.109 40.08C108.329 40.6 107.339 40.86 106.139 40.86ZM106.739 38.46C107.479 38.46 108.179 38.29 108.839 37.95C109.519 37.59 110.089 37.13 110.549 36.57V28.83C110.169 28.35 109.639 27.91 108.959 27.51C108.279 27.09 107.529 26.88 106.709 26.88C105.749 26.88 104.909 27.14 104.189 27.66C103.469 28.18 102.909 28.88 102.509 29.76C102.129 30.62 101.939 31.6 101.939 32.7C101.939 33.8 102.149 34.79 102.569 35.67C102.989 36.53 103.559 37.21 104.279 37.71C105.019 38.21 105.839 38.46 106.739 38.46ZM125.474 40.86C123.234 40.86 121.454 40.15 120.134 38.73C118.834 37.29 118.184 35.28 118.184 32.7C118.184 31.14 118.474 29.75 119.054 28.53C119.654 27.29 120.484 26.32 121.544 25.62C122.604 24.9 123.834 24.54 125.234 24.54C126.734 24.54 127.974 24.87 128.954 25.53C129.954 26.17 130.704 27.04 131.204 28.14C131.704 29.24 131.954 30.45 131.954 31.77C131.954 32.47 131.924 33.15 131.864 33.81H120.944C121.124 35.27 121.634 36.41 122.474 37.23C123.314 38.05 124.424 38.46 125.804 38.46C126.704 38.46 127.514 38.37 128.234 38.19C128.954 37.99 129.644 37.74 130.304 37.44L130.934 39.75C130.214 40.07 129.404 40.33 128.504 40.53C127.604 40.75 126.594 40.86 125.474 40.86ZM120.914 31.62H129.464C129.464 30.1 129.084 28.93 128.324 28.11C127.564 27.29 126.514 26.88 125.174 26.88C124.014 26.88 123.054 27.29 122.294 28.11C121.534 28.91 121.074 30.08 120.914 31.62ZM136.452 40.5V24.9H139.062V28.29C139.322 27.63 139.672 27.02 140.112 26.46C140.552 25.88 141.102 25.42 141.762 25.08C142.422 24.72 143.192 24.54 144.072 24.54C144.372 24.54 144.672 24.56 144.972 24.6C145.272 24.62 145.522 24.66 145.722 24.72L144.912 27.51C144.532 27.35 144.082 27.27 143.562 27.27C142.822 27.27 142.112 27.48 141.432 27.9C140.772 28.32 140.222 28.97 139.782 29.85C139.362 30.73 139.152 31.85 139.152 33.21V40.5H136.452Z" fill="black"/>
<path d="M1.5 30.5C1.5 14.4837 14.4837 1.5 30.5 1.5H166.5C182.516 1.5 195.5 14.4837 195.5 30.5C195.5 46.5163 182.516 59.5 166.5 59.5H30.5C14.4837 59.5 1.5 46.5163 1.5 30.5Z" stroke="black" stroke-width="3"/>
</svg>
